ISO-10303-21;
HEADER;
FILE_DESCRIPTION(('Open CASCADE Model'),'2;1');
FILE_NAME('Open CASCADE Shape Model','2026-09-17T16:38:41',('Author'),(
    'Open CASCADE'),'Open CASCADE STEP processor 7.9','Open CASCADE 7.9'
  ,'Unknown');
FILE_SCHEMA(('AUTOMOTIVE_DESIGN { 1 0 10303 214 1 1 1 1 }'));
ENDSEC;
DATA;
#1 = APPLICATION_PROTOCOL_DEFINITION('international standard',
  'automotive_design',2000,#2);
#2 = APPLICATION_CONTEXT(
  'core data for automotive mechanical design processes');
#3 = SHAPE_DEFINITION_REPRESENTATION(#4,#10);
#4 = PRODUCT_DEFINITION_SHAPE('','',#5);
#5 = PRODUCT_DEFINITION('design','',#6,#9);
#6 = PRODUCT_DEFINITION_FORMATION('','',#7);
#7 = PRODUCT('Open CASCADE STEP translator 7.9 1',
  'Open CASCADE STEP translator 7.9 1','',(#8));
#8 = PRODUCT_CONTEXT('',#2,'mechanical');
#9 = PRODUCT_DEFINITION_CONTEXT('part definition',#2,'design');
#10 = ADVANCED_BREP_SHAPE_REPRESENTATION('',(#11,#15),#83);
#11 = AXIS2_PLACEMENT_3D('',#12,#13,#14);
#12 = CARTESIAN_POINT('',(0.,0.,0.));
#13 = DIRECTION('',(0.,0.,1.));
#14 = DIRECTION('',(1.,0.,-0.));
#15 = MANIFOLD_SOLID_BREP('',#16);
#16 = CLOSED_SHELL('',(#17,#65,#74));
#17 = ADVANCED_FACE('',(#18),#50,.F.);
#18 = FACE_BOUND('',#19,.F.);
#19 = EDGE_LOOP('',(#20,#29,#39,#40));
#20 = ORIENTED_EDGE('',*,*,#21,.T.);
#21 = EDGE_CURVE('',#22,#24,#26,.T.);
#22 = VERTEX_POINT('',#23);
#23 = CARTESIAN_POINT('',(3.,0.,0.));
#24 = VERTEX_POINT('',#25);
#25 = CARTESIAN_POINT('',(3.,0.,30.));
#26 = B_SPLINE_CURVE_WITH_KNOTS('',1,(#27,#28),.UNSPECIFIED.,.F.,.F.,(2,
    2),(0.,30.),.PIECEWISE_BEZIER_KNOTS.);
#27 = CARTESIAN_POINT('',(3.,0.,0.));
#28 = CARTESIAN_POINT('',(3.,0.,30.));
#29 = ORIENTED_EDGE('',*,*,#30,.T.);
#30 = EDGE_CURVE('',#24,#24,#31,.T.);
#31 = ( BOUNDED_CURVE() B_SPLINE_CURVE(2,(#32,#33,#34,#35,#36,#37,#38),
.UNSPECIFIED.,.T.,.F.) B_SPLINE_CURVE_WITH_KNOTS((1,2,2,2,2,1),(
    -2.094395102393,0.,2.094395102393,4.188790204786,6.28318530718,
8.377580409573),.UNSPECIFIED.) CURVE() GEOMETRIC_REPRESENTATION_ITEM() 
RATIONAL_B_SPLINE_CURVE((1.,0.5,1.,0.5,1.,0.5,1.)) REPRESENTATION_ITEM(
  '') );
#32 = CARTESIAN_POINT('',(3.,0.,30.));
#33 = CARTESIAN_POINT('',(3.,5.196152422707,30.));
#34 = CARTESIAN_POINT('',(-1.5,2.598076211353,30.));
#35 = CARTESIAN_POINT('',(-6.,7.347880794884E-16,30.));
#36 = CARTESIAN_POINT('',(-1.5,-2.598076211353,30.));
#37 = CARTESIAN_POINT('',(3.,-5.196152422707,30.));
#38 = CARTESIAN_POINT('',(3.,0.,30.));
#39 = ORIENTED_EDGE('',*,*,#21,.F.);
#40 = ORIENTED_EDGE('',*,*,#41,.F.);
#41 = EDGE_CURVE('',#22,#22,#42,.T.);
#42 = ( BOUNDED_CURVE() B_SPLINE_CURVE(2,(#43,#44,#45,#46,#47,#48,#49),
.UNSPECIFIED.,.T.,.F.) B_SPLINE_CURVE_WITH_KNOTS((1,2,2,2,2,1),(
    -2.094395102393,0.,2.094395102393,4.188790204786,6.28318530718,
8.377580409573),.UNSPECIFIED.) CURVE() GEOMETRIC_REPRESENTATION_ITEM() 
RATIONAL_B_SPLINE_CURVE((1.,0.5,1.,0.5,1.,0.5,1.)) REPRESENTATION_ITEM(
  '') );
#43 = CARTESIAN_POINT('',(3.,0.,0.));
#44 = CARTESIAN_POINT('',(3.,5.196152422707,0.));
#45 = CARTESIAN_POINT('',(-1.5,2.598076211353,0.));
#46 = CARTESIAN_POINT('',(-6.,7.347880794884E-16,0.));
#47 = CARTESIAN_POINT('',(-1.5,-2.598076211353,0.));
#48 = CARTESIAN_POINT('',(3.,-5.196152422707,0.));
#49 = CARTESIAN_POINT('',(3.,0.,0.));
#50 = ( BOUNDED_SURFACE() B_SPLINE_SURFACE(2,1,(
    (#51,#52)
    ,(#53,#54)
    ,(#55,#56)
    ,(#57,#58)
    ,(#59,#60)
    ,(#61,#62)
,(#63,#64
    )),.UNSPECIFIED.,.T.,.F.,.F.) B_SPLINE_SURFACE_WITH_KNOTS((1,2,2,2,2
    ,1),(2,2),(-2.094395102393,0.,2.094395102393,4.188790204786,
    6.28318530718,8.377580409573),(-30.,0.),.UNSPECIFIED.) 
GEOMETRIC_REPRESENTATION_ITEM() RATIONAL_B_SPLINE_SURFACE((
    (1.,1.)
    ,(0.5,0.5)
    ,(1.,1.)
    ,(0.5,0.5)
    ,(1.,1.)
    ,(0.5,0.5)
,(1.,1.))) REPRESENTATION_ITEM('') SURFACE() );
#51 = CARTESIAN_POINT('',(3.,0.,30.));
#52 = CARTESIAN_POINT('',(3.,0.,0.));
#53 = CARTESIAN_POINT('',(3.,5.196152422707,30.));
#54 = CARTESIAN_POINT('',(3.,5.196152422707,0.));
#55 = CARTESIAN_POINT('',(-1.5,2.598076211353,30.));
#56 = CARTESIAN_POINT('',(-1.5,2.598076211353,0.));
#57 = CARTESIAN_POINT('',(-6.,7.347880794884E-16,30.));
#58 = CARTESIAN_POINT('',(-6.,7.347880794884E-16,0.));
#59 = CARTESIAN_POINT('',(-1.5,-2.598076211353,30.));
#60 = CARTESIAN_POINT('',(-1.5,-2.598076211353,0.));
#61 = CARTESIAN_POINT('',(3.,-5.196152422707,30.));
#62 = CARTESIAN_POINT('',(3.,-5.196152422707,0.));
#63 = CARTESIAN_POINT('',(3.,0.,30.));
#64 = CARTESIAN_POINT('',(3.,0.,0.));
#65 = ADVANCED_FACE('',(#66),#69,.F.);
#66 = FACE_BOUND('',#67,.F.);
#67 = EDGE_LOOP('',(#68));
#68 = ORIENTED_EDGE('',*,*,#41,.T.);
#69 = B_SPLINE_SURFACE_WITH_KNOTS('',1,1,(
    (#70,#71)
    ,(#72,#73)),.UNSPECIFIED.,.F.,.F.,.F.,(2,2),(2,2),(-3.,3.),(-3.,3.),
  .PIECEWISE_BEZIER_KNOTS.);
#70 = CARTESIAN_POINT('',(-3.,-3.,0.));
#71 = CARTESIAN_POINT('',(-3.,3.,0.));
#72 = CARTESIAN_POINT('',(3.,-3.,0.));
#73 = CARTESIAN_POINT('',(3.,3.,0.));
#74 = ADVANCED_FACE('',(#75),#78,.T.);
#75 = FACE_BOUND('',#76,.T.);
#76 = EDGE_LOOP('',(#77));
#77 = ORIENTED_EDGE('',*,*,#30,.T.);
#78 = B_SPLINE_SURFACE_WITH_KNOTS('',1,1,(
    (#79,#80)
    ,(#81,#82)),.UNSPECIFIED.,.F.,.F.,.F.,(2,2),(2,2),(-3.,3.),(-3.,3.),
  .PIECEWISE_BEZIER_KNOTS.);
#79 = CARTESIAN_POINT('',(-3.,-3.,30.));
#80 = CARTESIAN_POINT('',(-3.,3.,30.));
#81 = CARTESIAN_POINT('',(3.,-3.,30.));
#82 = CARTESIAN_POINT('',(3.,3.,30.));
#83 = ( GEOMETRIC_REPRESENTATION_CONTEXT(3) 
GLOBAL_UNCERTAINTY_ASSIGNED_CONTEXT((#87)) GLOBAL_UNIT_ASSIGNED_CONTEXT(
(#84,#85,#86)) REPRESENTATION_CONTEXT('Context #1',
  '3D Context with UNIT and UNCERTAINTY') );
#84 = ( LENGTH_UNIT() NAMED_UNIT(*) SI_UNIT(.MILLI.,.METRE.) );
#85 = ( NAMED_UNIT(*) PLANE_ANGLE_UNIT() SI_UNIT($,.RADIAN.) );
#86 = ( NAMED_UNIT(*) SI_UNIT($,.STERADIAN.) SOLID_ANGLE_UNIT() );
#87 = UNCERTAINTY_MEASURE_WITH_UNIT(LENGTH_MEASURE(1.E-07),#84,
  'distance_accuracy_value','confusion accuracy');
#88 = PRODUCT_RELATED_PRODUCT_CATEGORY('part',$,(#7));
ENDSEC;
END-ISO-10303-21;
