ISO-10303-21;
HEADER;
FILE_DESCRIPTION(('Open CASCADE Model'),'2;1');
FILE_NAME('nurbs.step','2026-09-17T16:16:19',('J. Chultarsky'),('Physna'),'Open CASCADE STEP processor 7.9','Open CASCADE 7.9'
  ,'Unknown');
FILE_SCHEMA(('AUTOMOTIVE_DESIGN { 1 0 10303 214 1 1 1 1 }'));
ENDSEC;
DATA;
#1 = APPLICATION_PROTOCOL_DEFINITION('international standard',
  'automotive_design',2000,#2);
#2 = APPLICATION_CONTEXT(
  'core data for automotive mechanical design processes');
#3 = SHAPE_DEFINITION_REPRESENTATION(#4,#10);
#4 = PRODUCT_DEFINITION_SHAPE('','',#5);
#5 = PRODUCT_DEFINITION('design','',#6,#9);
#6 = PRODUCT_DEFINITION_FORMATION('','',#7);
#7 = PRODUCT('Open CASCADE STEP translator 7.9 1',
  'Open CASCADE STEP translator 7.9 1','',(#8));
#8 = PRODUCT_CONTEXT('',#2,'mechanical');
#9 = PRODUCT_DEFINITION_CONTEXT('part definition',#2,'design');
#10 = ADVANCED_BREP_SHAPE_REPRESENTATION('',(#11,#15),#169);
#11 = AXIS2_PLACEMENT_3D('',#12,#13,#14);
#12 = CARTESIAN_POINT('',(0.,0.,0.));
#13 = DIRECTION('',(0.,0.,1.));
#14 = DIRECTION('',(1.,0.,-0.));
#15 = MANIFOLD_SOLID_BREP('',#16);
#16 = CLOSED_SHELL('',(#17,#69,#97,#125,#145,#157));
#17 = ADVANCED_FACE('',(#18),#56,.T.);
#18 = FACE_BOUND('',#19,.T.);
#19 = EDGE_LOOP('',(#20,#29,#40,#47));
#20 = ORIENTED_EDGE('',*,*,#21,.T.);
#21 = EDGE_CURVE('',#22,#24,#26,.T.);
#22 = VERTEX_POINT('',#23);
#23 = CARTESIAN_POINT('',(0.,0.,0.));
#24 = VERTEX_POINT('',#25);
#25 = CARTESIAN_POINT('',(0.,0.,5.));
#26 = B_SPLINE_CURVE_WITH_KNOTS('',1,(#27,#28),.UNSPECIFIED.,.F.,.F.,(2,
    2),(0.,5.),.PIECEWISE_BEZIER_KNOTS.);
#27 = CARTESIAN_POINT('',(0.,0.,0.));
#28 = CARTESIAN_POINT('',(0.,0.,5.));
#29 = ORIENTED_EDGE('',*,*,#30,.T.);
#30 = EDGE_CURVE('',#24,#31,#33,.T.);
#31 = VERTEX_POINT('',#32);
#32 = CARTESIAN_POINT('',(30.,3.,5.));
#33 = B_SPLINE_CURVE_WITH_KNOTS('',3,(#34,#35,#36,#37,#38,#39),
  .UNSPECIFIED.,.F.,.F.,(4,1,1,4),(0.,10.770329614269,22.43223340396,
    33.612573291459),.UNSPECIFIED.);
#34 = CARTESIAN_POINT('',(0.,0.,5.));
#35 = CARTESIAN_POINT('',(3.579071051472,4.965892889794,5.));
#36 = CARTESIAN_POINT('',(10.398290711036,5.637385477547,5.));
#37 = CARTESIAN_POINT('',(19.789053380421,-3.826046807322,5.));
#38 = CARTESIAN_POINT('',(26.463909496082,-2.731306369852,5.));
#39 = CARTESIAN_POINT('',(30.,3.,5.));
#40 = ORIENTED_EDGE('',*,*,#41,.F.);
#41 = EDGE_CURVE('',#42,#31,#44,.T.);
#42 = VERTEX_POINT('',#43);
#43 = CARTESIAN_POINT('',(30.,3.,0.));
#44 = B_SPLINE_CURVE_WITH_KNOTS('',1,(#45,#46),.UNSPECIFIED.,.F.,.F.,(2,
    2),(0.,5.),.PIECEWISE_BEZIER_KNOTS.);
#45 = CARTESIAN_POINT('',(30.,3.,0.));
#46 = CARTESIAN_POINT('',(30.,3.,5.));
#47 = ORIENTED_EDGE('',*,*,#48,.F.);
#48 = EDGE_CURVE('',#22,#42,#49,.T.);
#49 = B_SPLINE_CURVE_WITH_KNOTS('',3,(#50,#51,#52,#53,#54,#55),
  .UNSPECIFIED.,.F.,.F.,(4,1,1,4),(0.,10.770329614269,22.43223340396,
    33.612573291459),.UNSPECIFIED.);
#50 = CARTESIAN_POINT('',(0.,0.,0.));
#51 = CARTESIAN_POINT('',(3.579071051472,4.965892889794,0.));
#52 = CARTESIAN_POINT('',(10.398290711036,5.637385477547,0.));
#53 = CARTESIAN_POINT('',(19.789053380421,-3.826046807322,0.));
#54 = CARTESIAN_POINT('',(26.463909496082,-2.731306369852,-0.));
#55 = CARTESIAN_POINT('',(30.,3.,0.));
#56 = B_SPLINE_SURFACE_WITH_KNOTS('',3,1,(
    (#57,#58)
    ,(#59,#60)
    ,(#61,#62)
    ,(#63,#64)
    ,(#65,#66)
    ,(#67,#68
    )),.UNSPECIFIED.,.F.,.F.,.F.,(4,1,1,4),(2,2),(0.,10.770329614269,
    22.43223340396,33.612573291459),(-5.,0.),.UNSPECIFIED.);
#57 = CARTESIAN_POINT('',(0.,0.,5.));
#58 = CARTESIAN_POINT('',(0.,0.,0.));
#59 = CARTESIAN_POINT('',(3.579071051472,4.965892889794,5.));
#60 = CARTESIAN_POINT('',(3.579071051472,4.965892889794,0.));
#61 = CARTESIAN_POINT('',(10.398290711036,5.637385477547,5.));
#62 = CARTESIAN_POINT('',(10.398290711036,5.637385477547,0.));
#63 = CARTESIAN_POINT('',(19.789053380421,-3.826046807322,5.));
#64 = CARTESIAN_POINT('',(19.789053380421,-3.826046807322,0.));
#65 = CARTESIAN_POINT('',(26.463909496082,-2.731306369852,5.));
#66 = CARTESIAN_POINT('',(26.463909496082,-2.731306369852,-0.));
#67 = CARTESIAN_POINT('',(30.,3.,5.));
#68 = CARTESIAN_POINT('',(30.,3.,0.));
#69 = ADVANCED_FACE('',(#70),#92,.T.);
#70 = FACE_BOUND('',#71,.T.);
#71 = EDGE_LOOP('',(#72,#73,#80,#87));
#72 = ORIENTED_EDGE('',*,*,#41,.T.);
#73 = ORIENTED_EDGE('',*,*,#74,.T.);
#74 = EDGE_CURVE('',#31,#75,#77,.T.);
#75 = VERTEX_POINT('',#76);
#76 = CARTESIAN_POINT('',(30.,-10.,5.));
#77 = B_SPLINE_CURVE_WITH_KNOTS('',1,(#78,#79),.UNSPECIFIED.,.F.,.F.,(2,
    2),(0.,13.),.PIECEWISE_BEZIER_KNOTS.);
#78 = CARTESIAN_POINT('',(30.,3.,5.));
#79 = CARTESIAN_POINT('',(30.,-10.,5.));
#80 = ORIENTED_EDGE('',*,*,#81,.F.);
#81 = EDGE_CURVE('',#82,#75,#84,.T.);
#82 = VERTEX_POINT('',#83);
#83 = CARTESIAN_POINT('',(30.,-10.,0.));
#84 = B_SPLINE_CURVE_WITH_KNOTS('',1,(#85,#86),.UNSPECIFIED.,.F.,.F.,(2,
    2),(0.,5.),.PIECEWISE_BEZIER_KNOTS.);
#85 = CARTESIAN_POINT('',(30.,-10.,0.));
#86 = CARTESIAN_POINT('',(30.,-10.,5.));
#87 = ORIENTED_EDGE('',*,*,#88,.F.);
#88 = EDGE_CURVE('',#42,#82,#89,.T.);
#89 = B_SPLINE_CURVE_WITH_KNOTS('',1,(#90,#91),.UNSPECIFIED.,.F.,.F.,(2,
    2),(0.,13.),.PIECEWISE_BEZIER_KNOTS.);
#90 = CARTESIAN_POINT('',(30.,3.,0.));
#91 = CARTESIAN_POINT('',(30.,-10.,0.));
#92 = B_SPLINE_SURFACE_WITH_KNOTS('',1,1,(
    (#93,#94)
    ,(#95,#96)),.UNSPECIFIED.,.F.,.F.,.F.,(2,2),(2,2),(0.,13.),(-5.,0.),
  .PIECEWISE_BEZIER_KNOTS.);
#93 = CARTESIAN_POINT('',(30.,3.,5.));
#94 = CARTESIAN_POINT('',(30.,3.,0.));
#95 = CARTESIAN_POINT('',(30.,-10.,5.));
#96 = CARTESIAN_POINT('',(30.,-10.,0.));
#97 = ADVANCED_FACE('',(#98),#120,.T.);
#98 = FACE_BOUND('',#99,.T.);
#99 = EDGE_LOOP('',(#100,#101,#108,#115));
#100 = ORIENTED_EDGE('',*,*,#81,.T.);
#101 = ORIENTED_EDGE('',*,*,#102,.T.);
#102 = EDGE_CURVE('',#75,#103,#105,.T.);
#103 = VERTEX_POINT('',#104);
#104 = CARTESIAN_POINT('',(0.,-10.,5.));
#105 = B_SPLINE_CURVE_WITH_KNOTS('',1,(#106,#107),.UNSPECIFIED.,.F.,.F.,
  (2,2),(0.,30.),.PIECEWISE_BEZIER_KNOTS.);
#106 = CARTESIAN_POINT('',(30.,-10.,5.));
#107 = CARTESIAN_POINT('',(0.,-10.,5.));
#108 = ORIENTED_EDGE('',*,*,#109,.F.);
#109 = EDGE_CURVE('',#110,#103,#112,.T.);
#110 = VERTEX_POINT('',#111);
#111 = CARTESIAN_POINT('',(0.,-10.,0.));
#112 = B_SPLINE_CURVE_WITH_KNOTS('',1,(#113,#114),.UNSPECIFIED.,.F.,.F.,
  (2,2),(0.,5.),.PIECEWISE_BEZIER_KNOTS.);
#113 = CARTESIAN_POINT('',(0.,-10.,0.));
#114 = CARTESIAN_POINT('',(0.,-10.,5.));
#115 = ORIENTED_EDGE('',*,*,#116,.F.);
#116 = EDGE_CURVE('',#82,#110,#117,.T.);
#117 = B_SPLINE_CURVE_WITH_KNOTS('',1,(#118,#119),.UNSPECIFIED.,.F.,.F.,
  (2,2),(0.,30.),.PIECEWISE_BEZIER_KNOTS.);
#118 = CARTESIAN_POINT('',(30.,-10.,0.));
#119 = CARTESIAN_POINT('',(0.,-10.,0.));
#120 = B_SPLINE_SURFACE_WITH_KNOTS('',1,1,(
    (#121,#122)
    ,(#123,#124
    )),.UNSPECIFIED.,.F.,.F.,.F.,(2,2),(2,2),(0.,30.),(-5.,0.),
  .PIECEWISE_BEZIER_KNOTS.);
#121 = CARTESIAN_POINT('',(30.,-10.,5.));
#122 = CARTESIAN_POINT('',(30.,-10.,0.));
#123 = CARTESIAN_POINT('',(0.,-10.,5.));
#124 = CARTESIAN_POINT('',(0.,-10.,0.));
#125 = ADVANCED_FACE('',(#126),#140,.T.);
#126 = FACE_BOUND('',#127,.T.);
#127 = EDGE_LOOP('',(#128,#129,#134,#135));
#128 = ORIENTED_EDGE('',*,*,#109,.T.);
#129 = ORIENTED_EDGE('',*,*,#130,.T.);
#130 = EDGE_CURVE('',#103,#24,#131,.T.);
#131 = B_SPLINE_CURVE_WITH_KNOTS('',1,(#132,#133),.UNSPECIFIED.,.F.,.F.,
  (2,2),(0.,10.),.PIECEWISE_BEZIER_KNOTS.);
#132 = CARTESIAN_POINT('',(0.,-10.,5.));
#133 = CARTESIAN_POINT('',(0.,0.,5.));
#134 = ORIENTED_EDGE('',*,*,#21,.F.);
#135 = ORIENTED_EDGE('',*,*,#136,.F.);
#136 = EDGE_CURVE('',#110,#22,#137,.T.);
#137 = B_SPLINE_CURVE_WITH_KNOTS('',1,(#138,#139),.UNSPECIFIED.,.F.,.F.,
  (2,2),(0.,10.),.PIECEWISE_BEZIER_KNOTS.);
#138 = CARTESIAN_POINT('',(0.,-10.,0.));
#139 = CARTESIAN_POINT('',(0.,0.,0.));
#140 = B_SPLINE_SURFACE_WITH_KNOTS('',1,1,(
    (#141,#142)
    ,(#143,#144
    )),.UNSPECIFIED.,.F.,.F.,.F.,(2,2),(2,2),(0.,10.),(-5.,0.),
  .PIECEWISE_BEZIER_KNOTS.);
#141 = CARTESIAN_POINT('',(0.,-10.,5.));
#142 = CARTESIAN_POINT('',(0.,-10.,0.));
#143 = CARTESIAN_POINT('',(0.,0.,5.));
#144 = CARTESIAN_POINT('',(0.,0.,0.));
#145 = ADVANCED_FACE('',(#146),#152,.T.);
#146 = FACE_BOUND('',#147,.T.);
#147 = EDGE_LOOP('',(#148,#149,#150,#151));
#148 = ORIENTED_EDGE('',*,*,#48,.T.);
#149 = ORIENTED_EDGE('',*,*,#88,.T.);
#150 = ORIENTED_EDGE('',*,*,#116,.T.);
#151 = ORIENTED_EDGE('',*,*,#136,.T.);
#152 = B_SPLINE_SURFACE_WITH_KNOTS('',1,1,(
    (#153,#154)
    ,(#155,#156
    )),.UNSPECIFIED.,.F.,.F.,.F.,(2,2),(2,2),(-14.41421496793,
    15.58578503207),(-5.987237543492,9.650147934055),
  .PIECEWISE_BEZIER_KNOTS.);
#153 = CARTESIAN_POINT('',(30.,-10.,0.));
#154 = CARTESIAN_POINT('',(30.,5.637385477547,0.));
#155 = CARTESIAN_POINT('',(0.,-10.,0.));
#156 = CARTESIAN_POINT('',(0.,5.637385477547,0.));
#157 = ADVANCED_FACE('',(#158),#164,.F.);
#158 = FACE_BOUND('',#159,.F.);
#159 = EDGE_LOOP('',(#160,#161,#162,#163));
#160 = ORIENTED_EDGE('',*,*,#30,.T.);
#161 = ORIENTED_EDGE('',*,*,#74,.T.);
#162 = ORIENTED_EDGE('',*,*,#102,.T.);
#163 = ORIENTED_EDGE('',*,*,#130,.T.);
#164 = B_SPLINE_SURFACE_WITH_KNOTS('',1,1,(
    (#165,#166)
    ,(#167,#168
    )),.UNSPECIFIED.,.F.,.F.,.F.,(2,2),(2,2),(-14.41421496793,
    15.58578503207),(-5.987237543492,9.650147934055),
  .PIECEWISE_BEZIER_KNOTS.);
#165 = CARTESIAN_POINT('',(30.,-10.,5.));
#166 = CARTESIAN_POINT('',(30.,5.637385477547,5.));
#167 = CARTESIAN_POINT('',(0.,-10.,5.));
#168 = CARTESIAN_POINT('',(0.,5.637385477547,5.));
#169 = ( GEOMETRIC_REPRESENTATION_CONTEXT(3) 
GLOBAL_UNCERTAINTY_ASSIGNED_CONTEXT((#173)) GLOBAL_UNIT_ASSIGNED_CONTEXT
((#170,#171,#172)) REPRESENTATION_CONTEXT('Context #1',
  '3D Context with UNIT and UNCERTAINTY') );
#170 = ( LENGTH_UNIT() NAMED_UNIT(*) SI_UNIT(.MILLI.,.METRE.) );
#171 = ( NAMED_UNIT(*) PLANE_ANGLE_UNIT() SI_UNIT($,.RADIAN.) );
#172 = ( NAMED_UNIT(*) SI_UNIT($,.STERADIAN.) SOLID_ANGLE_UNIT() );
#173 = UNCERTAINTY_MEASURE_WITH_UNIT(LENGTH_MEASURE(1.E-07),#170,
  'distance_accuracy_value','confusion accuracy');
#174 = PRODUCT_RELATED_PRODUCT_CATEGORY('part',$,(#7));
ENDSEC;
END-ISO-10303-21;
